<svg version="1.1" xmlns="http://www.w3.org/2000/svg" viewBox="0 0 304.8157653808594 286.19317626953125" width="304.8157653808594" height="286.19317626953125" class="excalidraw-svg">
  <!-- svg-source:excalidraw -->
  
  <defs>
    <style class="style-fonts">
      @font-face {
        font-family: "Virgil";
        src: url("https://excalidraw.com/Virgil.woff2");
      }
      @font-face {
        font-family: "Cascadia";
        src: url("https://excalidraw.com/Cascadia.woff2");
      }
      @font-face {
        font-family: "Assistant";
        src: url("https://excalidraw.com/Assistant-Regular.woff2");
      }
    </style>
    
  </defs>
  <rect x="0" y="0" width="304.8157653808594" height="286.19317626953125" fill="#ffffff"/><g transform="translate(188.55758666992188 63.67681884765625) rotate(0 -38.88832092285156 79.96749877929688)" stroke="none"><path fill="#1e1e1e" d="M 0,5.29 Q 0,5.29 -2.51,5.31 -5.03,5.32 -8.85,5.44 -12.67,5.56 -14.84,5.69 -17.01,5.82 -19.50,5.92 -21.99,6.02 -24.30,6.90 -26.62,7.79 -30.24,11.19 -33.87,14.59 -35.81,17.29 -37.74,20.00 -39.16,22.65 -40.57,25.30 -41.38,27.78 -42.20,30.26 -42.84,32.63 -43.48,35.00 -43.64,37.57 -43.80,40.15 -43.71,42.60 -43.63,45.06 -44.00,48.45 -44.37,51.85 -45.36,54.87 -46.35,57.88 -47.42,60.25 -48.49,62.61 -49.97,64.28 -51.45,65.96 -53.80,67.95 -56.15,69.95 -58.06,71.34 -59.98,72.72 -62.74,74.29 -65.51,75.85 -67.52,76.63 -69.53,77.42 -73.39,78.68 -77.25,79.94 -80.72,80.67 -84.19,81.40 -88.28,82.74 -92.38,84.08 -95.48,85.32 -98.58,86.57 -100.61,87.55 -102.64,88.53 -104.63,89.35 -106.62,90.18 -109.16,92.33 -111.70,94.49 -113.29,95.97 -114.89,97.44 -116.36,99.10 -117.83,100.76 -120.19,103.99 -122.55,107.22 -124.11,110.46 -125.67,113.71 -126.44,116.58 -127.20,119.46 -127.69,122.60 -128.18,125.74 -128.22,128.70 -128.26,131.66 -127.68,133.88 -127.09,136.11 -125.76,137.94 -124.44,139.76 -122.18,141.91 -119.92,144.06 -116.41,146.19 -112.90,148.33 -110.84,149.46 -108.77,150.60 -105.37,151.85 -101.97,153.10 -99.83,153.34 -97.69,153.58 -94.53,154.15 -91.36,154.73 -88.41,155.01 -85.46,155.30 -82.00,155.55 -78.54,155.80 -75.17,155.94 -71.80,156.08 -68.48,156.17 -65.16,156.26 -61.85,156.32 -58.55,156.38 -54.95,156.48 -51.35,156.59 -48.31,156.05 -45.28,155.50 -41.49,154.54 -37.69,153.58 -33.97,152.05 -30.24,150.53 -26.71,148.89 -23.17,147.25 -19.29,145.87 -15.41,144.49 -11.93,143.25 -8.45,142.01 -5.61,140.56 -2.77,139.11 0.11,137.75 3.00,136.38 5.79,135.13 8.58,133.87 11.57,132.45 14.56,131.04 18.03,129.32 21.50,127.59 24.76,125.44 28.02,123.29 30.93,120.86 33.84,118.42 36.63,115.61 39.42,112.79 41.40,110.05 43.39,107.31 44.77,105.09 46.16,102.87 47.59,100.21 49.03,97.54 49.82,94.80 50.61,92.06 51.31,88.75 52.02,85.45 52.34,81.99 52.66,78.53 52.77,75.16 52.89,71.78 52.91,68.47 52.94,65.15 52.88,62.16 52.83,59.18 52.42,56.91 52.02,54.65 51.77,52.19 51.51,49.73 50.84,47.63 50.17,45.53 49.27,43.45 48.37,41.37 46.84,39.04 45.31,36.71 43.66,34.64 42.01,32.57 39.94,30.84 37.86,29.12 36.25,27.37 34.63,25.62 32.30,23.42 29.98,21.22 27.31,19.37 24.64,17.53 22.13,15.70 19.63,13.87 16.49,12.44 13.35,11.01 10.23,10.04 7.11,9.07 4.17,7.71 1.23,6.35 -0.61,5.94 -2.46,5.54 -3.50,5.26 -4.53,4.97 -5.42,4.37 -6.31,3.77 -6.96,2.91 -7.61,2.06 -7.95,1.04 -8.30,0.02 -8.30,-1.04 -8.30,-2.11 -7.96,-3.13 -7.61,-4.15 -6.96,-5.00 -6.32,-5.86 -5.43,-6.46 -4.54,-7.06 -3.51,-7.35 -2.47,-7.64 -1.40,-7.58 -0.33,-7.52 0.66,-7.13 1.66,-6.73 2.47,-6.04 3.29,-5.34 3.85,-4.42 4.40,-3.50 4.63,-2.45 4.86,-1.41 4.75,-0.34 4.63,0.72 4.18,1.69 3.73,2.67 2.99,3.45 2.26,4.22 1.31,4.73 0.36,5.23 -0.69,5.41 -1.75,5.58 -2.81,5.41 -3.87,5.23 -4.81,4.73 -5.76,4.23 -6.50,3.45 -7.24,2.67 -7.69,1.70 -8.14,0.72 -8.26,-0.33 -8.37,-1.40 -8.14,-2.45 -7.91,-3.50 -7.36,-4.42 -6.81,-5.34 -5.99,-6.03 -5.17,-6.73 -4.18,-7.12 -3.18,-7.52 -2.11,-7.58 -1.04,-7.64 -1.04,-7.64 -1.04,-7.64 3.88,-5.84 8.81,-4.03 11.61,-3.00 14.41,-1.96 16.59,-1.24 18.78,-0.53 21.79,0.94 24.81,2.41 27.13,4.24 29.46,6.07 32.17,8.23 34.88,10.39 37.67,12.87 40.47,15.35 42.77,17.74 45.08,20.14 47.82,22.85 50.56,25.55 52.19,28.14 53.83,30.72 55.57,34.30 57.32,37.87 58.26,40.49 59.20,43.11 59.90,46.15 60.59,49.19 60.60,51.40 60.61,53.62 60.81,56.43 61.02,59.24 60.92,62.26 60.81,65.28 60.72,68.68 60.64,72.08 60.48,75.63 60.33,79.18 60.02,83.12 59.71,87.06 58.94,90.78 58.18,94.50 56.97,97.93 55.77,101.35 54.00,104.29 52.23,107.24 50.52,109.33 48.81,111.42 46.48,114.36 44.15,117.31 41.23,120.47 38.31,123.63 35.19,126.35 32.08,129.08 28.57,131.67 25.06,134.26 21.51,136.28 17.96,138.30 14.79,139.76 11.63,141.22 8.83,142.29 6.03,143.35 3.18,144.49 0.33,145.62 -2.92,147.08 -6.17,148.55 -9.63,149.71 -13.08,150.88 -16.62,152.21 -20.16,153.53 -23.72,155.29 -27.27,157.05 -31.33,159.08 -35.39,161.10 -39.55,162.56 -43.71,164.02 -47.52,164.74 -51.33,165.46 -54.95,165.56 -58.57,165.66 -61.88,165.70 -65.20,165.75 -68.55,165.81 -71.90,165.87 -75.33,165.94 -78.77,166.02 -82.43,166.11 -86.09,166.21 -89.52,166.13 -92.96,166.04 -95.92,165.75 -98.88,165.46 -102.26,165.15 -105.64,164.83 -107.98,164.09 -110.32,163.35 -112.40,162.46 -114.48,161.57 -116.72,160.46 -118.96,159.35 -121.25,158.15 -123.53,156.95 -125.91,155.49 -128.30,154.03 -130.35,152.32 -132.41,150.62 -134.84,147.66 -137.27,144.70 -138.84,141.35 -140.41,138.01 -140.77,134.71 -141.12,131.40 -140.94,128.49 -140.76,125.58 -140.17,123.24 -139.59,120.90 -138.92,117.06 -138.25,113.22 -137.39,110.77 -136.52,108.32 -135.55,106.35 -134.59,104.38 -133.51,102.33 -132.43,100.28 -131.18,98.50 -129.92,96.73 -128.48,94.81 -127.04,92.90 -125.22,90.70 -123.40,88.50 -121.68,86.83 -119.97,85.16 -118.10,83.48 -116.23,81.80 -112.29,79.49 -108.35,77.18 -106.38,76.15 -104.41,75.12 -102.21,74.03 -100.01,72.94 -96.20,71.67 -92.40,70.41 -89.85,69.37 -87.31,68.34 -83.23,67.64 -79.15,66.94 -75.84,65.71 -72.54,64.48 -70.39,63.57 -68.25,62.65 -65.17,60.63 -62.09,58.62 -60.27,56.76 -58.45,54.90 -57.22,52.82 -55.99,50.74 -55.44,47.79 -54.88,44.84 -54.64,41.98 -54.40,39.13 -53.69,35.68 -52.99,32.23 -52.20,29.70 -51.41,27.16 -50.34,24.03 -49.26,20.89 -47.73,17.75 -46.19,14.61 -44.15,11.09 -42.12,7.57 -39.42,4.08 -36.73,0.59 -33.99,-1.44 -31.24,-3.47 -28.79,-4.41 -26.34,-5.34 -24.19,-5.68 -22.04,-6.02 -19.52,-5.92 -17.01,-5.82 -14.84,-5.69 -12.67,-5.56 -8.85,-5.44 -5.03,-5.32 -2.51,-5.31 0,-5.29 0.63,-5.22 1.26,-5.14 1.86,-4.91 2.46,-4.69 2.98,-4.32 3.51,-3.96 3.93,-3.48 4.36,-3.01 4.65,-2.44 4.95,-1.87 5.10,-1.25 5.26,-0.63 5.26,0.00 5.26,0.63 5.10,1.25 4.95,1.87 4.65,2.44 4.36,3.01 3.93,3.48 3.51,3.96 2.98,4.33 2.46,4.69 1.86,4.91 1.26,5.14 0.63,5.22 -0.00,5.29 -0.00,5.29 L 0,5.29 Z"/></g><g transform="translate(197.32113647460938 120.63995361328125) rotate(0 0.00005000000000165983 0.00005000000000165983)" stroke="none"><path fill="#1e1e1e" d="M 3.14,-3.14 Q 3.14,-3.14 3.55,-2.55 3.97,-1.97 4.18,-1.28 4.40,-0.59 4.38,0.11 4.36,0.83 4.11,1.51 3.86,2.18 3.41,2.74 2.96,3.30 2.36,3.69 1.75,4.07 1.05,4.25 0.36,4.42 -0.35,4.36 -1.07,4.30 -1.73,4.02 -2.39,3.74 -2.92,3.26 -3.46,2.78 -3.81,2.15 -4.16,1.53 -4.30,0.82 -4.43,0.11 -4.34,-0.59 -4.24,-1.30 -3.92,-1.94 -3.60,-2.59 -3.09,-3.09 -2.59,-3.60 -1.94,-3.92 -1.30,-4.24 -0.59,-4.34 0.12,-4.43 0.82,-4.30 1.53,-4.16 2.15,-3.81 2.78,-3.46 3.26,-2.92 3.74,-2.39 4.02,-1.73 4.31,-1.07 4.36,-0.35 4.42,0.36 4.25,1.05 4.07,1.75 3.69,2.36 3.30,2.96 2.74,3.41 2.18,3.86 1.51,4.11 0.83,4.36 0.11,4.38 -0.60,4.40 -1.28,4.18 -1.97,3.97 -2.55,3.55 -3.14,3.13 -3.14,3.14 -3.14,3.14 -3.47,2.71 -3.80,2.29 -4.02,1.80 -4.24,1.32 -4.33,0.79 -4.43,0.26 -4.40,-0.26 -4.36,-0.80 -4.20,-1.31 -4.04,-1.82 -3.77,-2.28 -3.49,-2.73 -3.11,-3.11 -2.73,-3.49 -2.28,-3.77 -1.82,-4.05 -1.31,-4.20 -0.80,-4.36 -0.26,-4.40 0.26,-4.43 0.79,-4.33 1.32,-4.24 1.80,-4.02 2.29,-3.80 2.71,-3.47 3.14,-3.14 3.14,-3.14 L 3.14,-3.14 Z"/></g><g transform="translate(164.45779418945312 157.8851318359375) rotate(0 0.00004999999999988347 0.00005000000000165983)" stroke="none"><path fill="#1e1e1e" d="M 3.14,-3.14 Q 3.14,-3.14 3.55,-2.55 3.97,-1.97 4.18,-1.28 4.40,-0.59 4.38,0.11 4.36,0.83 4.11,1.51 3.86,2.18 3.41,2.74 2.96,3.30 2.36,3.69 1.75,4.07 1.05,4.25 0.36,4.42 -0.35,4.36 -1.07,4.30 -1.73,4.02 -2.39,3.74 -2.92,3.26 -3.46,2.78 -3.81,2.15 -4.16,1.53 -4.30,0.82 -4.43,0.11 -4.34,-0.59 -4.24,-1.30 -3.92,-1.94 -3.60,-2.59 -3.09,-3.09 -2.59,-3.60 -1.94,-3.92 -1.30,-4.24 -0.59,-4.34 0.12,-4.43 0.82,-4.30 1.53,-4.16 2.15,-3.81 2.78,-3.46 3.26,-2.92 3.74,-2.39 4.02,-1.73 4.31,-1.07 4.36,-0.35 4.42,0.36 4.25,1.05 4.07,1.75 3.69,2.36 3.30,2.96 2.74,3.41 2.18,3.86 1.51,4.11 0.83,4.36 0.11,4.38 -0.60,4.40 -1.28,4.18 -1.97,3.97 -2.55,3.55 -3.14,3.13 -3.14,3.14 -3.14,3.14 -3.47,2.71 -3.80,2.29 -4.02,1.80 -4.24,1.32 -4.33,0.79 -4.43,0.26 -4.40,-0.26 -4.36,-0.80 -4.20,-1.31 -4.04,-1.82 -3.77,-2.28 -3.49,-2.73 -3.11,-3.11 -2.73,-3.49 -2.28,-3.77 -1.82,-4.05 -1.31,-4.20 -0.80,-4.36 -0.26,-4.40 0.26,-4.43 0.79,-4.33 1.32,-4.24 1.80,-4.02 2.29,-3.80 2.71,-3.47 3.14,-3.14 3.14,-3.14 L 3.14,-3.14 Z"/></g><g transform="translate(199.51199340820312 153.50332641601562) rotate(0 0.00005000000000165983 0.00005000000000165983)" stroke="none"><path fill="#1e1e1e" d="M 3.14,-3.14 Q 3.14,-3.14 3.55,-2.55 3.97,-1.97 4.18,-1.28 4.40,-0.59 4.38,0.11 4.36,0.83 4.11,1.51 3.86,2.18 3.41,2.74 2.96,3.30 2.36,3.69 1.75,4.07 1.05,4.25 0.36,4.42 -0.35,4.36 -1.07,4.30 -1.73,4.02 -2.39,3.74 -2.92,3.26 -3.46,2.78 -3.81,2.15 -4.16,1.53 -4.30,0.82 -4.43,0.11 -4.34,-0.59 -4.24,-1.30 -3.92,-1.94 -3.60,-2.59 -3.09,-3.09 -2.59,-3.60 -1.94,-3.92 -1.30,-4.24 -0.59,-4.34 0.12,-4.43 0.82,-4.30 1.53,-4.16 2.15,-3.81 2.78,-3.46 3.26,-2.92 3.74,-2.39 4.02,-1.73 4.31,-1.07 4.36,-0.35 4.42,0.36 4.25,1.05 4.07,1.75 3.69,2.36 3.30,2.96 2.74,3.41 2.18,3.86 1.51,4.11 0.83,4.36 0.11,4.38 -0.60,4.40 -1.28,4.18 -1.97,3.97 -2.55,3.55 -3.14,3.13 -3.14,3.14 -3.14,3.14 -3.47,2.71 -3.80,2.29 -4.02,1.80 -4.24,1.32 -4.33,0.79 -4.43,0.26 -4.40,-0.26 -4.36,-0.80 -4.20,-1.31 -4.04,-1.82 -3.77,-2.28 -3.49,-2.73 -3.11,-3.11 -2.73,-3.49 -2.28,-3.77 -1.82,-4.05 -1.31,-4.20 -0.80,-4.36 -0.26,-4.40 0.26,-4.43 0.79,-4.33 1.32,-4.24 1.80,-4.02 2.29,-3.80 2.71,-3.47 3.14,-3.14 3.14,-3.14 L 3.14,-3.14 Z"/></g><g transform="translate(185.27120971679688 172.12591552734375) rotate(0 0.00004999999999988347 0.00005000000000165983)" stroke="none"><path fill="#1e1e1e" d="M 3.14,-3.14 Q 3.14,-3.14 3.55,-2.55 3.97,-1.97 4.18,-1.28 4.40,-0.59 4.38,0.11 4.36,0.83 4.11,1.51 3.86,2.18 3.41,2.74 2.96,3.30 2.36,3.69 1.75,4.07 1.05,4.25 0.36,4.42 -0.35,4.36 -1.07,4.30 -1.73,4.02 -2.39,3.74 -2.92,3.26 -3.46,2.78 -3.81,2.15 -4.16,1.53 -4.30,0.82 -4.43,0.11 -4.34,-0.59 -4.24,-1.30 -3.92,-1.94 -3.60,-2.59 -3.09,-3.09 -2.59,-3.60 -1.94,-3.92 -1.30,-4.24 -0.59,-4.34 0.12,-4.43 0.82,-4.30 1.53,-4.16 2.15,-3.81 2.78,-3.46 3.26,-2.92 3.74,-2.39 4.02,-1.73 4.31,-1.07 4.36,-0.35 4.42,0.36 4.25,1.05 4.07,1.75 3.69,2.36 3.30,2.96 2.74,3.41 2.18,3.86 1.51,4.11 0.83,4.36 0.11,4.38 -0.60,4.40 -1.28,4.18 -1.97,3.97 -2.55,3.55 -3.14,3.13 -3.14,3.14 -3.14,3.14 -3.47,2.71 -3.80,2.29 -4.02,1.80 -4.24,1.32 -4.33,0.79 -4.43,0.26 -4.40,-0.26 -4.36,-0.80 -4.20,-1.31 -4.04,-1.82 -3.77,-2.28 -3.49,-2.73 -3.11,-3.11 -2.73,-3.49 -2.28,-3.77 -1.82,-4.05 -1.31,-4.20 -0.80,-4.36 -0.26,-4.40 0.26,-4.43 0.79,-4.33 1.32,-4.24 1.80,-4.02 2.29,-3.80 2.71,-3.47 3.14,-3.14 3.14,-3.14 L 3.14,-3.14 Z"/></g><g transform="translate(114.06729125976562 194.0347900390625) rotate(0 0.00005000000000165983 0.00005000000000165983)" stroke="none"><path fill="#1e1e1e" d="M 3.14,-3.14 Q 3.14,-3.14 3.55,-2.55 3.97,-1.97 4.18,-1.28 4.40,-0.59 4.38,0.11 4.36,0.83 4.11,1.51 3.86,2.18 3.41,2.74 2.96,3.30 2.36,3.69 1.75,4.07 1.05,4.25 0.36,4.42 -0.35,4.36 -1.07,4.30 -1.73,4.02 -2.39,3.74 -2.92,3.26 -3.46,2.78 -3.81,2.15 -4.16,1.53 -4.30,0.82 -4.43,0.11 -4.34,-0.59 -4.24,-1.30 -3.92,-1.94 -3.60,-2.59 -3.09,-3.09 -2.59,-3.60 -1.94,-3.92 -1.30,-4.24 -0.59,-4.34 0.12,-4.43 0.82,-4.30 1.53,-4.16 2.15,-3.81 2.78,-3.46 3.26,-2.92 3.74,-2.39 4.02,-1.73 4.31,-1.07 4.36,-0.35 4.42,0.36 4.25,1.05 4.07,1.75 3.69,2.36 3.30,2.96 2.74,3.41 2.18,3.86 1.51,4.11 0.83,4.36 0.11,4.38 -0.60,4.40 -1.28,4.18 -1.97,3.97 -2.55,3.55 -3.14,3.13 -3.14,3.14 -3.14,3.14 -3.47,2.71 -3.80,2.29 -4.02,1.80 -4.24,1.32 -4.33,0.79 -4.43,0.26 -4.40,-0.26 -4.36,-0.80 -4.20,-1.31 -4.04,-1.82 -3.77,-2.28 -3.49,-2.73 -3.11,-3.11 -2.73,-3.49 -2.28,-3.77 -1.82,-4.05 -1.31,-4.20 -0.80,-4.36 -0.26,-4.40 0.26,-4.43 0.79,-4.33 1.32,-4.24 1.80,-4.02 2.29,-3.80 2.71,-3.47 3.14,-3.14 3.14,-3.14 L 3.14,-3.14 Z"/></g><g transform="translate(106.399169921875 164.457763671875) rotate(0 0.00005000000000165983 0.00005000000000165983)" stroke="none"><path fill="#1e1e1e" d="M 3.14,-3.14 Q 3.14,-3.14 3.55,-2.55 3.97,-1.97 4.18,-1.28 4.40,-0.59 4.38,0.11 4.36,0.83 4.11,1.51 3.86,2.18 3.41,2.74 2.96,3.30 2.36,3.69 1.75,4.07 1.05,4.25 0.36,4.42 -0.35,4.36 -1.07,4.30 -1.73,4.02 -2.39,3.74 -2.92,3.26 -3.46,2.78 -3.81,2.15 -4.16,1.53 -4.30,0.82 -4.43,0.11 -4.34,-0.59 -4.24,-1.30 -3.92,-1.94 -3.60,-2.59 -3.09,-3.09 -2.59,-3.60 -1.94,-3.92 -1.30,-4.24 -0.59,-4.34 0.12,-4.43 0.82,-4.30 1.53,-4.16 2.15,-3.81 2.78,-3.46 3.26,-2.92 3.74,-2.39 4.02,-1.73 4.31,-1.07 4.36,-0.35 4.42,0.36 4.25,1.05 4.07,1.75 3.69,2.36 3.30,2.96 2.74,3.41 2.18,3.86 1.51,4.11 0.83,4.36 0.11,4.38 -0.60,4.40 -1.28,4.18 -1.97,3.97 -2.55,3.55 -3.14,3.13 -3.14,3.14 -3.14,3.14 -3.47,2.71 -3.80,2.29 -4.02,1.80 -4.24,1.32 -4.33,0.79 -4.43,0.26 -4.40,-0.26 -4.36,-0.80 -4.20,-1.31 -4.04,-1.82 -3.77,-2.28 -3.49,-2.73 -3.11,-3.11 -2.73,-3.49 -2.28,-3.77 -1.82,-4.05 -1.31,-4.20 -0.80,-4.36 -0.26,-4.40 0.26,-4.43 0.79,-4.33 1.32,-4.24 1.80,-4.02 2.29,-3.80 2.71,-3.47 3.14,-3.14 3.14,-3.14 L 3.14,-3.14 Z"/></g><g transform="translate(151.31240844726562 198.41656494140625) rotate(0 0.00004999999999988347 0.00005000000000165983)" stroke="none"><path fill="#1e1e1e" d="M 3.14,-3.14 Q 3.14,-3.14 3.55,-2.55 3.97,-1.97 4.18,-1.28 4.40,-0.59 4.38,0.11 4.36,0.83 4.11,1.51 3.86,2.18 3.41,2.74 2.96,3.30 2.36,3.69 1.75,4.07 1.05,4.25 0.36,4.42 -0.35,4.36 -1.07,4.30 -1.73,4.02 -2.39,3.74 -2.92,3.26 -3.46,2.78 -3.81,2.15 -4.16,1.53 -4.30,0.82 -4.43,0.11 -4.34,-0.59 -4.24,-1.30 -3.92,-1.94 -3.60,-2.59 -3.09,-3.09 -2.59,-3.60 -1.94,-3.92 -1.30,-4.24 -0.59,-4.34 0.12,-4.43 0.82,-4.30 1.53,-4.16 2.15,-3.81 2.78,-3.46 3.26,-2.92 3.74,-2.39 4.02,-1.73 4.31,-1.07 4.36,-0.35 4.42,0.36 4.25,1.05 4.07,1.75 3.69,2.36 3.30,2.96 2.74,3.41 2.18,3.86 1.51,4.11 0.83,4.36 0.11,4.38 -0.60,4.40 -1.28,4.18 -1.97,3.97 -2.55,3.55 -3.14,3.13 -3.14,3.14 -3.14,3.14 -3.47,2.71 -3.80,2.29 -4.02,1.80 -4.24,1.32 -4.33,0.79 -4.43,0.26 -4.40,-0.26 -4.36,-0.80 -4.20,-1.31 -4.04,-1.82 -3.77,-2.28 -3.49,-2.73 -3.11,-3.11 -2.73,-3.49 -2.28,-3.77 -1.82,-4.05 -1.31,-4.20 -0.80,-4.36 -0.26,-4.40 0.26,-4.43 0.79,-4.33 1.32,-4.24 1.80,-4.02 2.29,-3.80 2.71,-3.47 3.14,-3.14 3.14,-3.14 L 3.14,-3.14 Z"/></g><g transform="translate(158.98056030273438 118.44906616210938) rotate(0 0.547698974609375 0)" stroke="none"><path fill="#1e1e1e" d="M 0.62,-4.58 Q 0.62,-4.58 1.36,-4.46 2.09,-4.34 2.74,-3.99 3.40,-3.64 3.91,-3.10 4.42,-2.57 4.73,-1.89 5.04,-1.22 5.12,-0.48 5.20,0.24 5.04,0.97 4.88,1.69 4.50,2.33 4.12,2.96 3.55,3.44 2.99,3.92 2.30,4.19 1.61,4.47 0.87,4.51 0.13,4.55 -0.57,4.35 -1.29,4.15 -1.90,3.74 -2.52,3.32 -2.96,2.73 -3.41,2.14 -3.65,1.44 -3.89,0.74 -3.89,-0.00 -3.89,-0.74 -3.65,-1.44 -3.41,-2.14 -2.96,-2.73 -2.51,-3.32 -1.90,-3.74 -1.29,-4.15 -0.57,-4.35 0.13,-4.55 0.87,-4.51 1.61,-4.47 2.30,-4.19 2.99,-3.92 3.55,-3.44 4.12,-2.96 4.50,-2.32 4.88,-1.69 5.04,-0.97 5.20,-0.24 5.12,0.48 5.04,1.22 4.73,1.89 4.42,2.57 3.91,3.10 3.40,3.64 2.74,3.99 2.09,4.34 1.35,4.46 0.62,4.58 0.62,4.58 0.62,4.58 0.07,4.58 -0.48,4.59 -1.02,4.47 -1.57,4.34 -2.06,4.09 -2.56,3.84 -2.98,3.48 -3.41,3.12 -3.73,2.66 -4.05,2.21 -4.26,1.69 -4.47,1.17 -4.54,0.62 -4.62,0.07 -4.56,-0.48 -4.50,-1.03 -4.31,-1.55 -4.12,-2.08 -3.81,-2.54 -3.50,-3.01 -3.09,-3.38 -2.68,-3.76 -2.19,-4.03 -1.70,-4.29 -1.16,-4.43 -0.62,-4.58 0.00,-4.58 L 0.62,-4.58 Z"/></g><g transform="translate(199.51199340820312 95.44473266601562) rotate(0 0.00005000000000165983 0.00005000000000165983)" stroke="none"><path fill="#1e1e1e" d="M 3.14,-3.14 Q 3.14,-3.14 3.55,-2.55 3.97,-1.97 4.18,-1.28 4.40,-0.59 4.38,0.11 4.36,0.83 4.11,1.51 3.86,2.18 3.41,2.74 2.96,3.30 2.36,3.69 1.75,4.07 1.05,4.25 0.36,4.42 -0.35,4.36 -1.07,4.30 -1.73,4.02 -2.39,3.74 -2.92,3.26 -3.46,2.78 -3.81,2.15 -4.16,1.53 -4.30,0.82 -4.43,0.11 -4.34,-0.59 -4.24,-1.30 -3.92,-1.94 -3.60,-2.59 -3.09,-3.09 -2.59,-3.60 -1.94,-3.92 -1.30,-4.24 -0.59,-4.34 0.12,-4.43 0.82,-4.30 1.53,-4.16 2.15,-3.81 2.78,-3.46 3.26,-2.92 3.74,-2.39 4.02,-1.73 4.31,-1.07 4.36,-0.35 4.42,0.36 4.25,1.05 4.07,1.75 3.69,2.36 3.30,2.96 2.74,3.41 2.18,3.86 1.51,4.11 0.83,4.36 0.11,4.38 -0.60,4.40 -1.28,4.18 -1.97,3.97 -2.55,3.55 -3.14,3.13 -3.14,3.14 -3.14,3.14 -3.47,2.71 -3.80,2.29 -4.02,1.80 -4.24,1.32 -4.33,0.79 -4.43,0.26 -4.40,-0.26 -4.36,-0.80 -4.20,-1.31 -4.04,-1.82 -3.77,-2.28 -3.49,-2.73 -3.11,-3.11 -2.73,-3.49 -2.28,-3.77 -1.82,-4.05 -1.31,-4.20 -0.80,-4.36 -0.26,-4.40 0.26,-4.43 0.79,-4.33 1.32,-4.24 1.80,-4.02 2.29,-3.80 2.71,-3.47 3.14,-3.14 3.14,-3.14 L 3.14,-3.14 Z"/></g><g transform="translate(230.18447875976562 149.12155151367188) rotate(0 0.00005000000000165983 0.00005000000000165983)" stroke="none"><path fill="#1e1e1e" d="M 3.14,-3.14 Q 3.14,-3.14 3.55,-2.55 3.97,-1.97 4.18,-1.28 4.40,-0.59 4.38,0.11 4.36,0.83 4.11,1.51 3.86,2.18 3.41,2.74 2.96,3.30 2.36,3.69 1.75,4.07 1.05,4.25 0.36,4.42 -0.35,4.36 -1.07,4.30 -1.73,4.02 -2.39,3.74 -2.92,3.26 -3.46,2.78 -3.81,2.15 -4.16,1.53 -4.30,0.82 -4.43,0.11 -4.34,-0.59 -4.24,-1.30 -3.92,-1.94 -3.60,-2.59 -3.09,-3.09 -2.59,-3.60 -1.94,-3.92 -1.30,-4.24 -0.59,-4.34 0.12,-4.43 0.82,-4.30 1.53,-4.16 2.15,-3.81 2.78,-3.46 3.26,-2.92 3.74,-2.39 4.02,-1.73 4.31,-1.07 4.36,-0.35 4.42,0.36 4.25,1.05 4.07,1.75 3.69,2.36 3.30,2.96 2.74,3.41 2.18,3.86 1.51,4.11 0.83,4.36 0.11,4.38 -0.60,4.40 -1.28,4.18 -1.97,3.97 -2.55,3.55 -3.14,3.13 -3.14,3.14 -3.14,3.14 -3.47,2.71 -3.80,2.29 -4.02,1.80 -4.24,1.32 -4.33,0.79 -4.43,0.26 -4.40,-0.26 -4.36,-0.80 -4.20,-1.31 -4.04,-1.82 -3.77,-2.28 -3.49,-2.73 -3.11,-3.11 -2.73,-3.49 -2.28,-3.77 -1.82,-4.05 -1.31,-4.20 -0.80,-4.36 -0.26,-4.40 0.26,-4.43 0.79,-4.33 1.32,-4.24 1.80,-4.02 2.29,-3.80 2.71,-3.47 3.14,-3.14 3.14,-3.14 L 3.14,-3.14 Z"/></g><g transform="translate(80.10848999023438 202.79833984375) rotate(0 0.00005000000000165983 0.00005000000000165983)" stroke="none"><path fill="#1e1e1e" d="M 3.14,-3.14 Q 3.14,-3.14 3.55,-2.55 3.97,-1.97 4.18,-1.28 4.40,-0.59 4.38,0.11 4.36,0.83 4.11,1.51 3.86,2.18 3.41,2.74 2.96,3.30 2.36,3.69 1.75,4.07 1.05,4.25 0.36,4.42 -0.35,4.36 -1.07,4.30 -1.73,4.02 -2.39,3.74 -2.92,3.26 -3.46,2.78 -3.81,2.15 -4.16,1.53 -4.30,0.82 -4.43,0.11 -4.34,-0.59 -4.24,-1.30 -3.92,-1.94 -3.60,-2.59 -3.09,-3.09 -2.59,-3.60 -1.94,-3.92 -1.30,-4.24 -0.59,-4.34 0.12,-4.43 0.82,-4.30 1.53,-4.16 2.15,-3.81 2.78,-3.46 3.26,-2.92 3.74,-2.39 4.02,-1.73 4.31,-1.07 4.36,-0.35 4.42,0.36 4.25,1.05 4.07,1.75 3.69,2.36 3.30,2.96 2.74,3.41 2.18,3.86 1.51,4.11 0.83,4.36 0.11,4.38 -0.60,4.40 -1.28,4.18 -1.97,3.97 -2.55,3.55 -3.14,3.13 -3.14,3.14 -3.14,3.14 -3.47,2.71 -3.80,2.29 -4.02,1.80 -4.24,1.32 -4.33,0.79 -4.43,0.26 -4.40,-0.26 -4.36,-0.80 -4.20,-1.31 -4.04,-1.82 -3.77,-2.28 -3.49,-2.73 -3.11,-3.11 -2.73,-3.49 -2.28,-3.77 -1.82,-4.05 -1.31,-4.20 -0.80,-4.36 -0.26,-4.40 0.26,-4.43 0.79,-4.33 1.32,-4.24 1.80,-4.02 2.29,-3.80 2.71,-3.47 3.14,-3.14 3.14,-3.14 L 3.14,-3.14 Z"/></g><g transform="translate(174.31680297851562 120.63995361328125) rotate(0 41.62689208984375 -52.58135986328125)" stroke="none"><path fill="#1e1e1e" d="M -0.74,-0.24 Q -0.74,-0.24 -0.43,-1.19 -0.11,-2.13 0.99,-4.46 2.10,-6.79 3.82,-11.20 5.54,-15.60 8.17,-22.83 10.80,-30.06 15.71,-40.10 20.62,-50.14 26.51,-58.84 32.40,-67.54 39.34,-74.73 46.27,-81.92 54.29,-87.83 62.30,-93.73 68.24,-97.19 74.18,-100.65 76.69,-102.11 79.20,-103.57 79.30,-103.61 79.40,-103.65 79.51,-103.65 79.62,-103.66 79.72,-103.62 79.82,-103.59 79.91,-103.53 80.00,-103.47 80.06,-103.39 80.13,-103.30 80.16,-103.20 80.19,-103.09 80.19,-102.99 80.19,-102.88 80.16,-102.78 80.12,-102.68 80.05,-102.59 79.99,-102.51 79.90,-102.45 79.81,-102.39 79.70,-102.36 79.60,-102.34 79.49,-102.34 79.39,-102.35 79.29,-102.39 79.19,-102.43 79.11,-102.50 79.03,-102.57 78.97,-102.67 78.92,-102.76 78.90,-102.86 78.87,-102.97 78.89,-103.08 78.90,-103.18 78.95,-103.28 78.99,-103.38 79.07,-103.45 79.14,-103.53 79.24,-103.58 79.33,-103.63 79.44,-103.64 79.55,-103.66 79.65,-103.64 79.76,-103.62 79.85,-103.57 79.95,-103.52 80.02,-103.44 80.09,-103.36 80.14,-103.26 80.18,-103.16 80.19,-103.06 80.20,-102.95 80.18,-102.85 80.15,-102.74 80.09,-102.65 80.04,-102.56 79.95,-102.49 79.87,-102.42 79.87,-102.42 79.87,-102.42 77.36,-100.96 74.85,-99.50 68.98,-96.07 63.10,-92.65 55.17,-86.82 47.24,-80.98 40.38,-73.88 33.53,-66.77 27.70,-58.15 21.87,-49.53 16.99,-39.56 12.12,-29.58 9.51,-22.33 6.89,-15.08 5.18,-10.61 3.46,-6.15 2.41,-3.89 1.37,-1.64 1.05,-0.69 0.74,0.24 0.70,0.33 0.66,0.42 0.60,0.49 0.54,0.56 0.46,0.62 0.39,0.68 0.30,0.71 0.21,0.75 0.12,0.77 0.03,0.78 -0.06,0.77 -0.15,0.77 -0.24,0.74 -0.33,0.71 -0.41,0.66 -0.49,0.60 -0.56,0.54 -0.62,0.47 -0.67,0.39 -0.72,0.30 -0.75,0.21 -0.77,0.12 -0.78,0.03 -0.78,-0.06 -0.76,-0.15 -0.74,-0.24 -0.74,-0.24 L -0.74,-0.24 Z"/></g><g transform="translate(174.31680297851562 108.59005737304688) rotate(0 -43.27009582519531 -38.88829040527344)" stroke="none"><path fill="#1e1e1e" d="M -0.36,0.73 Q -0.36,0.73 -2.25,-0.23 -4.14,-1.20 -8.50,-6.11 -12.87,-11.01 -19.39,-18.10 -25.91,-25.18 -34.34,-33.22 -42.76,-41.26 -52.01,-49.40 -61.25,-57.54 -68.63,-63.20 -76.01,-68.85 -79.15,-71.27 -82.30,-73.68 -82.37,-73.76 -82.45,-73.84 -82.49,-73.93 -82.54,-74.03 -82.55,-74.14 -82.56,-74.25 -82.54,-74.36 -82.51,-74.46 -82.46,-74.56 -82.40,-74.65 -82.32,-74.72 -82.23,-74.79 -82.13,-74.83 -82.03,-74.87 -81.92,-74.88 -81.81,-74.88 -81.71,-74.85 -81.60,-74.82 -81.51,-74.76 -81.42,-74.70 -81.36,-74.61 -81.29,-74.53 -81.25,-74.42 -81.22,-74.32 -81.22,-74.21 -81.22,-74.10 -81.26,-74.00 -81.29,-73.89 -81.36,-73.81 -81.42,-73.72 -81.51,-73.66 -81.61,-73.60 -81.71,-73.57 -81.82,-73.54 -81.92,-73.55 -82.03,-73.55 -82.14,-73.59 -82.24,-73.64 -82.32,-73.71 -82.40,-73.78 -82.46,-73.87 -82.51,-73.96 -82.54,-74.07 -82.56,-74.18 -82.55,-74.29 -82.54,-74.39 -82.49,-74.49 -82.44,-74.59 -82.37,-74.67 -82.29,-74.75 -82.20,-74.80 -82.10,-74.85 -81.99,-74.87 -81.88,-74.89 -81.78,-74.87 -81.67,-74.85 -81.57,-74.80 -81.48,-74.75 -81.48,-74.75 -81.48,-74.75 -78.33,-72.34 -75.18,-69.94 -67.76,-64.26 -60.34,-58.58 -51.07,-50.43 -41.79,-42.28 -33.32,-34.22 -24.86,-26.16 -18.30,-19.08 -11.75,-12.00 -7.58,-7.28 -3.41,-2.57 -1.52,-1.65 0.36,-0.73 0.45,-0.68 0.53,-0.62 0.60,-0.55 0.66,-0.48 0.71,-0.39 0.76,-0.30 0.78,-0.21 0.81,-0.11 0.81,-0.01 0.81,0.08 0.79,0.17 0.77,0.27 0.73,0.36 0.68,0.45 0.62,0.52 0.55,0.60 0.47,0.66 0.39,0.72 0.30,0.75 0.21,0.79 0.11,0.80 0.01,0.82 -0.08,0.81 -0.18,0.80 -0.27,0.76 -0.36,0.73 -0.36,0.73 L -0.36,0.73 Z"/></g><g transform="translate(98.73104858398438 155.6942138671875) rotate(0 -44.36552429199219 -37.24513244628906)" stroke="none"><path fill="#1e1e1e" d="M -0.78,0.26 Q -0.78,0.26 -1.70,-2.57 -2.62,-5.41 -6.74,-11.25 -10.85,-17.09 -18.89,-25.88 -26.93,-34.67 -37.87,-43.43 -48.82,-52.18 -58.49,-58.10 -68.16,-64.02 -74.14,-66.85 -80.12,-69.67 -82.68,-70.88 -85.23,-72.09 -85.32,-72.15 -85.41,-72.22 -85.48,-72.30 -85.54,-72.39 -85.58,-72.49 -85.61,-72.60 -85.61,-72.71 -85.61,-72.82 -85.58,-72.92 -85.54,-73.02 -85.47,-73.11 -85.41,-73.19 -85.32,-73.26 -85.22,-73.32 -85.12,-73.34 -85.01,-73.37 -84.91,-73.37 -84.80,-73.36 -84.70,-73.32 -84.59,-73.28 -84.51,-73.21 -84.43,-73.13 -84.37,-73.04 -84.32,-72.95 -84.30,-72.84 -84.27,-72.73 -84.29,-72.62 -84.30,-72.52 -84.34,-72.42 -84.39,-72.32 -84.47,-72.24 -84.54,-72.16 -84.64,-72.11 -84.74,-72.06 -84.84,-72.04 -84.95,-72.03 -85.06,-72.05 -85.17,-72.06 -85.26,-72.12 -85.36,-72.17 -85.43,-72.25 -85.51,-72.33 -85.55,-72.43 -85.60,-72.53 -85.61,-72.63 -85.62,-72.74 -85.60,-72.85 -85.57,-72.96 -85.51,-73.05 -85.46,-73.14 -85.37,-73.21 -85.29,-73.28 -85.19,-73.32 -85.09,-73.36 -84.98,-73.37 -84.87,-73.37 -84.76,-73.34 -84.66,-73.31 -84.66,-73.31 -84.66,-73.31 -82.10,-72.11 -79.54,-70.90 -73.49,-68.05 -67.44,-65.20 -57.69,-59.24 -47.94,-53.28 -36.90,-44.46 -25.87,-35.65 -17.75,-26.80 -9.64,-17.95 -5.39,-11.93 -1.15,-5.92 -0.18,-3.09 0.78,-0.26 0.80,-0.16 0.82,-0.06 0.81,0.03 0.81,0.13 0.78,0.22 0.75,0.32 0.70,0.40 0.65,0.49 0.58,0.56 0.52,0.63 0.43,0.69 0.35,0.74 0.25,0.77 0.16,0.80 0.06,0.81 -0.03,0.82 -0.13,0.80 -0.22,0.79 -0.32,0.75 -0.41,0.71 -0.49,0.65 -0.57,0.59 -0.63,0.51 -0.69,0.43 -0.73,0.34 -0.78,0.26 -0.78,0.26 L -0.78,0.26 Z"/></g><g transform="translate(137.07162475585938 175.4122314453125) rotate(0 71.20394897460938 -4.38177490234375)" stroke="none"><path fill="#1e1e1e" d="M -0.29,-0.79 Q -0.29,-0.79 2.23,-1.71 4.75,-2.63 10.91,-4.29 17.06,-5.94 29.17,-6.96 41.28,-7.98 59.97,-8.09 78.66,-8.20 97.03,-6.03 115.40,-3.87 123.18,-2.95 130.97,-2.03 131.08,-2.00 131.18,-1.97 131.27,-1.90 131.37,-1.84 131.43,-1.75 131.50,-1.66 131.53,-1.56 131.57,-1.45 131.57,-1.34 131.57,-1.23 131.53,-1.13 131.49,-1.02 131.43,-0.93 131.36,-0.85 131.26,-0.79 131.17,-0.72 131.07,-0.70 130.96,-0.67 130.85,-0.67 130.74,-0.68 130.63,-0.72 130.53,-0.76 130.45,-0.84 130.36,-0.91 130.31,-1.00 130.25,-1.10 130.23,-1.21 130.21,-1.32 130.22,-1.43 130.23,-1.54 130.28,-1.64 130.33,-1.74 130.40,-1.82 130.48,-1.90 130.58,-1.95 130.68,-2.00 130.79,-2.02 130.90,-2.03 131.01,-2.01 131.12,-2.00 131.21,-1.94 131.31,-1.89 131.39,-1.81 131.46,-1.73 131.51,-1.63 131.55,-1.53 131.56,-1.42 131.57,-1.31 131.55,-1.20 131.52,-1.09 131.47,-0.99 131.41,-0.90 131.32,-0.83 131.24,-0.76 131.14,-0.72 131.03,-0.68 130.92,-0.67 130.81,-0.67 130.81,-0.67 130.81,-0.67 123.02,-1.58 115.23,-2.49 96.95,-4.63 78.67,-6.78 60.04,-6.65 41.41,-6.52 29.43,-5.50 17.45,-4.47 11.38,-2.81 5.31,-1.14 2.80,-0.17 0.29,0.79 0.19,0.81 0.09,0.84 -0.00,0.84 -0.10,0.84 -0.20,0.81 -0.30,0.79 -0.39,0.74 -0.48,0.69 -0.56,0.62 -0.63,0.56 -0.69,0.47 -0.75,0.39 -0.78,0.29 -0.82,0.20 -0.83,0.09 -0.84,-0.00 -0.83,-0.10 -0.82,-0.20 -0.78,-0.30 -0.75,-0.39 -0.69,-0.48 -0.63,-0.56 -0.55,-0.63 -0.47,-0.70 -0.38,-0.74 -0.29,-0.79 -0.29,-0.79 L -0.29,-0.79 Z"/></g><g transform="translate(224.70724487304688 158.98052978515625) rotate(0 35.05426025390625 -25.195236206054688)" stroke="none"><path fill="#1e1e1e" d="M -0.82,-0.18 Q -0.82,-0.18 -0.16,-3.02 0.49,-5.87 3.99,-10.36 7.49,-14.84 14.05,-20.21 20.61,-25.57 29.40,-31.00 38.18,-36.42 47.29,-40.62 56.40,-44.83 60.26,-46.60 64.12,-48.38 64.23,-48.41 64.33,-48.44 64.44,-48.43 64.55,-48.42 64.66,-48.38 64.76,-48.34 64.84,-48.27 64.93,-48.20 64.98,-48.10 65.04,-48.01 65.07,-47.90 65.09,-47.79 65.08,-47.68 65.07,-47.57 65.02,-47.47 64.97,-47.37 64.90,-47.29 64.82,-47.21 64.72,-47.16 64.62,-47.10 64.51,-47.09 64.40,-47.07 64.30,-47.09 64.19,-47.11 64.09,-47.16 63.99,-47.21 63.91,-47.29 63.84,-47.37 63.79,-47.47 63.75,-47.57 63.73,-47.68 63.72,-47.79 63.75,-47.90 63.77,-48.01 63.83,-48.10 63.88,-48.20 63.97,-48.27 64.05,-48.34 64.16,-48.38 64.26,-48.42 64.37,-48.43 64.48,-48.44 64.59,-48.41 64.69,-48.38 64.79,-48.31 64.88,-48.25 64.94,-48.16 65.01,-48.07 65.05,-47.97 65.08,-47.86 65.08,-47.75 65.08,-47.64 65.05,-47.54 65.01,-47.43 64.94,-47.34 64.88,-47.26 64.78,-47.19 64.69,-47.13 64.69,-47.13 64.69,-47.13 60.84,-45.35 56.99,-43.56 47.96,-39.39 38.93,-35.21 30.23,-29.82 21.53,-24.44 15.11,-19.17 8.68,-13.90 5.35,-9.68 2.02,-5.46 1.42,-2.64 0.82,0.18 0.79,0.28 0.76,0.37 0.70,0.46 0.64,0.54 0.57,0.61 0.49,0.68 0.40,0.73 0.31,0.78 0.22,0.81 0.12,0.84 0.01,0.84 -0.08,0.84 -0.18,0.82 -0.28,0.80 -0.37,0.75 -0.46,0.70 -0.54,0.64 -0.62,0.57 -0.68,0.49 -0.74,0.41 -0.78,0.31 -0.81,0.22 -0.83,0.12 -0.84,0.01 -0.83,-0.08 -0.82,-0.18 -0.82,-0.18 L -0.82,-0.18 Z"/></g><g transform="translate(219.23001098632812 99.82650756835938) rotate(0 25.19525146484375 -27.933853149414062)" stroke="none"><path fill="#1e1e1e" d="M -0.82,-0.18 Q -0.82,-0.18 -0.17,-3.02 0.48,-5.85 3.65,-10.94 6.82,-16.03 12.27,-22.29 17.73,-28.54 24.17,-34.35 30.60,-40.16 36.16,-44.83 41.73,-49.50 44.09,-51.48 46.46,-53.46 46.55,-53.51 46.65,-53.57 46.76,-53.59 46.86,-53.62 46.97,-53.60 47.08,-53.59 47.18,-53.54 47.28,-53.50 47.36,-53.42 47.44,-53.34 47.50,-53.25 47.55,-53.15 47.57,-53.04 47.58,-52.93 47.56,-52.82 47.55,-52.71 47.49,-52.61 47.44,-52.51 47.36,-52.44 47.28,-52.36 47.18,-52.32 47.08,-52.27 46.97,-52.26 46.86,-52.25 46.75,-52.27 46.64,-52.30 46.55,-52.35 46.45,-52.41 46.38,-52.50 46.31,-52.58 46.27,-52.68 46.23,-52.79 46.22,-52.90 46.22,-53.01 46.25,-53.12 46.28,-53.22 46.34,-53.31 46.40,-53.41 46.49,-53.47 46.58,-53.54 46.68,-53.57 46.79,-53.61 46.90,-53.61 47.01,-53.61 47.12,-53.57 47.22,-53.54 47.31,-53.47 47.40,-53.40 47.46,-53.31 47.52,-53.22 47.55,-53.11 47.58,-53.00 47.57,-52.89 47.57,-52.78 47.52,-52.68 47.48,-52.58 47.41,-52.49 47.34,-52.41 47.34,-52.41 47.34,-52.41 44.98,-50.42 42.63,-48.43 37.09,-43.77 31.55,-39.11 25.19,-33.34 18.84,-27.58 13.47,-21.40 8.10,-15.23 5.06,-10.35 2.03,-5.48 1.43,-2.64 0.82,0.18 0.79,0.28 0.76,0.37 0.70,0.46 0.64,0.54 0.57,0.61 0.49,0.68 0.40,0.73 0.31,0.78 0.22,0.81 0.12,0.84 0.01,0.84 -0.08,0.84 -0.18,0.82 -0.28,0.80 -0.37,0.75 -0.46,0.70 -0.54,0.64 -0.62,0.57 -0.68,0.49 -0.74,0.41 -0.78,0.31 -0.81,0.22 -0.83,0.12 -0.84,0.01 -0.83,-0.08 -0.82,-0.18 -0.82,-0.18 L -0.82,-0.18 Z"/></g><g transform="translate(192.93936157226562 80.10848999023438) rotate(0 -10.40673828125 -35.05424499511719)" stroke="none"><path fill="#1e1e1e" d="M -0.75,0.37 Q -0.75,0.37 -1.36,-0.89 -1.97,-2.16 -3.51,-7.81 -5.04,-13.46 -7.25,-21.82 -9.46,-30.18 -11.66,-39.09 -13.86,-48.01 -16.04,-54.28 -18.22,-60.56 -19.15,-63.24 -20.08,-65.92 -20.09,-66.03 -20.11,-66.14 -20.10,-66.25 -20.08,-66.36 -20.03,-66.45 -19.98,-66.55 -19.90,-66.63 -19.82,-66.71 -19.72,-66.75 -19.62,-66.80 -19.51,-66.81 -19.40,-66.83 -19.29,-66.80 -19.18,-66.78 -19.09,-66.73 -18.99,-66.67 -18.92,-66.59 -18.84,-66.50 -18.80,-66.40 -18.76,-66.30 -18.75,-66.19 -18.75,-66.08 -18.78,-65.97 -18.80,-65.86 -18.86,-65.77 -18.93,-65.68 -19.01,-65.61 -19.10,-65.54 -19.21,-65.50 -19.31,-65.47 -19.42,-65.47 -19.53,-65.47 -19.64,-65.50 -19.74,-65.53 -19.83,-65.60 -19.92,-65.67 -19.98,-65.76 -20.05,-65.85 -20.08,-65.96 -20.11,-66.06 -20.10,-66.17 -20.10,-66.28 -20.06,-66.39 -20.02,-66.49 -19.95,-66.58 -19.88,-66.66 -19.78,-66.72 -19.69,-66.78 -19.58,-66.80 -19.47,-66.83 -19.36,-66.82 -19.25,-66.81 -19.15,-66.76 -19.05,-66.71 -18.97,-66.64 -18.89,-66.56 -18.83,-66.47 -18.78,-66.37 -18.78,-66.37 -18.78,-66.37 -17.84,-63.69 -16.90,-61.01 -14.69,-54.68 -12.48,-48.35 -10.26,-39.45 -8.05,-30.56 -5.81,-22.21 -3.58,-13.86 -2.06,-8.37 -0.54,-2.87 0.10,-1.62 0.75,-0.37 0.79,-0.28 0.82,-0.18 0.83,-0.08 0.84,0.01 0.83,0.11 0.82,0.21 0.78,0.31 0.74,0.40 0.68,0.49 0.62,0.57 0.54,0.64 0.46,0.70 0.37,0.75 0.28,0.79 0.18,0.82 0.08,0.84 -0.01,0.84 -0.11,0.84 -0.21,0.81 -0.31,0.78 -0.40,0.73 -0.49,0.68 -0.57,0.61 -0.64,0.55 -0.70,0.46 -0.75,0.37 -0.75,0.37 L -0.75,0.37 Z"/></g><g transform="translate(139.26254272460938 120.63995361328125) rotate(0 -36.697418212890625 -20.813446044921875)" stroke="none"><path fill="#1e1e1e" d="M -0.19,0.79 Q -0.19,0.79 -1.47,0.44 -2.75,0.09 -6.89,-3.91 -11.03,-7.92 -18.06,-13.66 -25.08,-19.41 -33.39,-24.67 -41.70,-29.93 -50.23,-33.42 -58.76,-36.90 -63.03,-38.39 -67.29,-39.87 -69.10,-40.51 -70.92,-41.14 -71.02,-41.20 -71.11,-41.25 -71.19,-41.33 -71.26,-41.41 -71.31,-41.51 -71.35,-41.61 -71.36,-41.72 -71.37,-41.82 -71.35,-41.93 -71.32,-42.04 -71.27,-42.13 -71.21,-42.22 -71.13,-42.29 -71.04,-42.36 -70.94,-42.40 -70.84,-42.44 -70.73,-42.45 -70.62,-42.45 -70.52,-42.42 -70.41,-42.39 -70.32,-42.33 -70.23,-42.27 -70.17,-42.18 -70.10,-42.09 -70.07,-41.99 -70.03,-41.88 -70.04,-41.77 -70.04,-41.67 -70.07,-41.56 -70.11,-41.46 -70.18,-41.37 -70.24,-41.29 -70.33,-41.23 -70.42,-41.17 -70.53,-41.14 -70.63,-41.11 -70.74,-41.12 -70.85,-41.12 -70.95,-41.17 -71.05,-41.21 -71.14,-41.28 -71.22,-41.35 -71.27,-41.44 -71.33,-41.54 -71.35,-41.65 -71.37,-41.75 -71.36,-41.86 -71.35,-41.97 -71.30,-42.07 -71.26,-42.17 -71.18,-42.24 -71.10,-42.32 -71.01,-42.37 -70.91,-42.42 -70.80,-42.44 -70.69,-42.46 -70.59,-42.44 -70.48,-42.42 -70.48,-42.42 -70.48,-42.42 -68.66,-41.79 -66.84,-41.16 -62.54,-39.67 -58.24,-38.18 -49.60,-34.65 -40.95,-31.12 -32.56,-25.82 -24.17,-20.52 -17.08,-14.75 -9.99,-8.98 -6.14,-5.17 -2.28,-1.35 -1.04,-1.07 0.19,-0.79 0.29,-0.76 0.38,-0.72 0.46,-0.67 0.54,-0.61 0.61,-0.53 0.67,-0.46 0.72,-0.37 0.77,-0.28 0.79,-0.19 0.81,-0.09 0.81,0.00 0.81,0.10 0.79,0.19 0.76,0.29 0.72,0.38 0.67,0.46 0.60,0.54 0.54,0.61 0.46,0.67 0.38,0.73 0.28,0.76 0.19,0.79 0.09,0.81 -0.00,0.82 -0.10,0.81 -0.19,0.79 -0.19,0.79 L -0.19,0.79 Z"/></g><g transform="translate(123.92630004882812 165.55322265625) rotate(0 -24.64752197265625 32.315643310546875)" stroke="none"><path fill="#1e1e1e" d="M 0.18,0.75 Q 0.18,0.75 -1.06,1.04 -2.31,1.34 -4.29,2.97 -6.28,4.60 -9.35,7.81 -12.43,11.02 -16.59,15.23 -20.75,19.45 -25.37,23.46 -29.99,27.47 -34.45,31.98 -38.90,36.48 -41.70,41.80 -44.49,47.11 -45.67,52.15 -46.85,57.20 -47.37,59.38 -47.88,61.56 -47.93,61.66 -47.97,61.76 -48.04,61.84 -48.11,61.92 -48.20,61.97 -48.29,62.03 -48.40,62.05 -48.50,62.07 -48.61,62.06 -48.72,62.04 -48.81,62.00 -48.91,61.95 -48.99,61.87 -49.06,61.80 -49.11,61.70 -49.16,61.61 -49.18,61.50 -49.19,61.40 -49.17,61.29 -49.16,61.18 -49.10,61.09 -49.05,61.00 -48.97,60.92 -48.89,60.85 -48.80,60.81 -48.70,60.76 -48.59,60.75 -48.48,60.74 -48.38,60.77 -48.28,60.79 -48.18,60.85 -48.09,60.91 -48.02,60.99 -47.96,61.07 -47.92,61.17 -47.88,61.27 -47.88,61.38 -47.87,61.49 -47.90,61.59 -47.93,61.69 -47.99,61.78 -48.06,61.87 -48.14,61.93 -48.23,62.00 -48.33,62.03 -48.43,62.06 -48.54,62.06 -48.65,62.06 -48.75,62.02 -48.85,61.99 -48.93,61.92 -49.02,61.86 -49.08,61.77 -49.14,61.68 -49.16,61.57 -49.19,61.47 -49.18,61.36 -49.18,61.25 -49.18,61.25 -49.18,61.25 -48.66,59.08 -48.15,56.90 -46.91,51.69 -45.68,46.49 -42.78,41.02 -39.87,35.55 -35.38,30.99 -30.89,26.44 -26.31,22.46 -21.73,18.48 -17.59,14.26 -13.45,10.05 -10.32,6.76 -7.19,3.48 -4.96,1.70 -2.72,-0.08 -1.45,-0.41 -0.18,-0.75 -0.09,-0.76 -0.00,-0.78 0.09,-0.77 0.18,-0.75 0.27,-0.72 0.36,-0.69 0.43,-0.63 0.51,-0.58 0.57,-0.51 0.64,-0.44 0.68,-0.36 0.72,-0.27 0.75,-0.18 0.77,-0.09 0.77,-0.00 0.77,0.09 0.75,0.18 0.73,0.27 0.68,0.35 0.64,0.44 0.58,0.51 0.51,0.58 0.44,0.63 0.36,0.69 0.27,0.72 0.18,0.75 0.18,0.75 L 0.18,0.75 Z"/></g><g transform="translate(144.73977661132812 199.51202392578125) rotate(0 -13.693069458007812 35.054229736328125)" stroke="none"><path fill="#1e1e1e" d="M 0.56,0.56 Q 0.56,0.56 -0.70,1.80 -1.97,3.04 -3.71,6.62 -5.45,10.21 -8.10,16.47 -10.75,22.74 -13.78,29.51 -16.81,36.28 -19.35,42.61 -21.89,48.94 -23.28,54.11 -24.66,59.28 -25.51,63.76 -26.35,68.24 -26.39,68.34 -26.42,68.45 -26.49,68.53 -26.56,68.62 -26.65,68.67 -26.74,68.73 -26.85,68.76 -26.95,68.79 -27.06,68.78 -27.17,68.77 -27.27,68.73 -27.37,68.69 -27.45,68.61 -27.53,68.54 -27.58,68.45 -27.64,68.35 -27.66,68.25 -27.68,68.14 -27.67,68.03 -27.65,67.92 -27.60,67.83 -27.56,67.73 -27.48,67.65 -27.40,67.57 -27.31,67.52 -27.21,67.48 -27.10,67.46 -26.99,67.45 -26.89,67.47 -26.78,67.49 -26.68,67.54 -26.59,67.59 -26.52,67.67 -26.44,67.75 -26.40,67.85 -26.36,67.95 -26.35,68.06 -26.34,68.17 -26.36,68.28 -26.39,68.38 -26.45,68.47 -26.51,68.56 -26.59,68.63 -26.68,68.70 -26.78,68.74 -26.88,68.78 -26.99,68.78 -27.10,68.78 -27.20,68.75 -27.30,68.72 -27.39,68.66 -27.48,68.59 -27.55,68.51 -27.61,68.42 -27.64,68.31 -27.67,68.21 -27.67,68.10 -27.67,67.99 -27.67,67.99 -27.67,67.99 -26.82,63.46 -25.97,58.93 -24.57,53.68 -23.16,48.43 -20.62,42.07 -18.08,35.72 -15.07,28.95 -12.07,22.19 -9.41,15.88 -6.76,9.56 -4.91,5.78 -3.06,1.99 -1.81,0.71 -0.56,-0.56 -0.49,-0.62 -0.41,-0.68 -0.32,-0.72 -0.23,-0.76 -0.14,-0.78 -0.04,-0.79 0.04,-0.79 0.14,-0.78 0.23,-0.75 0.32,-0.73 0.41,-0.68 0.49,-0.63 0.56,-0.56 0.63,-0.49 0.68,-0.41 0.73,-0.32 0.75,-0.23 0.78,-0.14 0.79,-0.04 0.79,0.04 0.78,0.14 0.76,0.23 0.72,0.32 0.68,0.41 0.62,0.49 0.56,0.56 0.56,0.56 L 0.56,0.56 Z"/></g><g transform="translate(162.26687622070312 183.080322265625) rotate(0 26.838409423828125 46.556427001953125)" stroke="none"><path fill="#1e1e1e" d="M 0.15,-0.76 Q 0.15,-0.76 1.73,-0.43 3.30,-0.09 6.28,1.66 9.26,3.42 13.67,7.02 18.08,10.62 23.13,16.59 28.18,22.56 32.85,30.16 37.52,37.76 41.72,47.00 45.92,56.23 48.34,65.55 50.76,74.87 51.79,80.08 52.81,85.30 53.25,87.51 53.68,89.72 53.68,89.82 53.69,89.93 53.66,90.03 53.63,90.14 53.56,90.22 53.50,90.31 53.41,90.37 53.33,90.44 53.22,90.47 53.12,90.50 53.01,90.50 52.91,90.50 52.81,90.46 52.71,90.42 52.62,90.36 52.54,90.29 52.48,90.20 52.42,90.11 52.39,90.00 52.37,89.90 52.38,89.79 52.38,89.69 52.43,89.59 52.47,89.49 52.54,89.41 52.61,89.33 52.70,89.27 52.80,89.22 52.90,89.20 53.01,89.18 53.11,89.19 53.22,89.21 53.32,89.26 53.41,89.30 53.49,89.38 53.57,89.45 53.61,89.55 53.66,89.65 53.68,89.75 53.69,89.86 53.67,89.96 53.65,90.07 53.60,90.16 53.55,90.26 53.47,90.33 53.39,90.40 53.29,90.44 53.19,90.49 53.09,90.50 52.98,90.51 52.87,90.48 52.77,90.45 52.68,90.40 52.59,90.34 52.52,90.26 52.45,90.17 52.42,90.07 52.38,89.97 52.38,89.97 52.38,89.97 51.94,87.76 51.51,85.56 50.49,80.38 49.47,75.20 47.08,66.00 44.69,56.79 40.52,47.63 36.36,38.48 31.74,30.97 27.12,23.45 22.15,17.58 17.19,11.71 12.85,8.19 8.52,4.66 5.75,3.01 2.98,1.35 1.41,1.06 -0.15,0.76 -0.24,0.73 -0.33,0.70 -0.41,0.65 -0.49,0.60 -0.55,0.53 -0.62,0.47 -0.66,0.39 -0.71,0.30 -0.74,0.21 -0.77,0.12 -0.77,0.03 -0.77,-0.05 -0.76,-0.15 -0.74,-0.24 -0.70,-0.32 -0.66,-0.41 -0.60,-0.48 -0.54,-0.56 -0.46,-0.61 -0.39,-0.67 -0.30,-0.71 -0.22,-0.74 -0.12,-0.76 -0.03,-0.78 0.05,-0.77 0.15,-0.76 0.15,-0.76 L 0.15,-0.76 Z"/></g><g transform="translate(85.58572387695312 176.5076904296875) rotate(0 -22.456634521484375 -13.145355224609375)" stroke="none"><path fill="#1e1e1e" d="M -0.85,0.21 Q -0.85,0.21 -1.10,-1.00 -1.36,-2.22 -5.14,-5.12 -8.93,-8.01 -15.88,-11.81 -22.84,-15.61 -29.26,-18.49 -35.67,-21.37 -38.41,-22.60 -41.14,-23.83 -41.24,-23.90 -41.33,-23.96 -41.40,-24.05 -41.47,-24.14 -41.51,-24.25 -41.55,-24.35 -41.55,-24.47 -41.55,-24.58 -41.52,-24.69 -41.48,-24.80 -41.41,-24.89 -41.35,-24.98 -41.25,-25.04 -41.16,-25.11 -41.05,-25.14 -40.94,-25.17 -40.83,-25.17 -40.72,-25.16 -40.61,-25.12 -40.50,-25.08 -40.42,-25.01 -40.33,-24.94 -40.27,-24.84 -40.21,-24.74 -40.18,-24.63 -40.16,-24.52 -40.17,-24.41 -40.18,-24.30 -40.23,-24.19 -40.27,-24.09 -40.35,-24.00 -40.43,-23.92 -40.53,-23.87 -40.63,-23.81 -40.74,-23.79 -40.85,-23.77 -40.96,-23.79 -41.07,-23.81 -41.17,-23.86 -41.28,-23.91 -41.35,-23.99 -41.43,-24.07 -41.48,-24.18 -41.53,-24.28 -41.55,-24.39 -41.56,-24.50 -41.54,-24.62 -41.51,-24.73 -41.46,-24.82 -41.40,-24.92 -41.31,-25.00 -41.23,-25.07 -41.12,-25.12 -41.02,-25.16 -40.90,-25.17 -40.79,-25.17 -40.68,-25.14 -40.57,-25.12 -40.57,-25.12 -40.57,-25.12 -37.83,-23.90 -35.08,-22.68 -28.61,-19.80 -22.13,-16.91 -15.05,-13.07 -7.98,-9.24 -3.93,-6.02 0.10,-2.81 0.47,-1.51 0.85,-0.21 0.86,-0.10 0.87,-0.00 0.86,0.10 0.85,0.20 0.81,0.30 0.77,0.40 0.72,0.49 0.66,0.58 0.58,0.65 0.50,0.72 0.40,0.77 0.31,0.82 0.21,0.84 0.10,0.87 0.00,0.87 -0.10,0.87 -0.20,0.84 -0.30,0.82 -0.40,0.77 -0.49,0.72 -0.57,0.65 -0.65,0.58 -0.71,0.49 -0.77,0.41 -0.81,0.31 -0.85,0.21 -0.85,0.21 L -0.85,0.21 Z"/></g></svg>